<svg width="254" height="133" viewBox="0 0 254 133" fill="none" xmlns="http://www.w3.org/2000/svg">
<path d="M10.2456 126.221C8.93344 126.221 7.90881 125.971 7.17167 125.469C6.44927 124.953 5.94064 124.238 5.64578 123.324C5.36567 122.41 5.22561 121.349 5.22561 120.14C5.22561 118.798 5.36567 117.707 5.64578 116.867C5.9259 116.012 6.34607 115.385 6.9063 114.987C7.48127 114.574 8.18155 114.368 9.00715 114.368C9.52315 114.368 9.97281 114.464 10.3561 114.655C10.7542 114.847 11.0712 115.201 11.307 115.717H11.3955C11.6019 115.186 11.941 114.832 12.4128 114.655C12.8845 114.464 13.3932 114.368 13.9386 114.368C14.9559 114.368 15.7152 114.626 16.2164 115.142C16.7324 115.658 16.9904 116.41 16.9904 117.398V126H13.6733V118.061C13.6733 117.648 13.5996 117.368 13.4521 117.221C13.3047 117.073 13.1057 116.999 12.855 116.999C12.5749 116.999 12.3612 117.073 12.2137 117.221C12.081 117.368 11.9926 117.619 11.9484 117.973H10.6436C10.5846 117.589 10.4741 117.331 10.3119 117.199C10.1497 117.066 9.95807 116.999 9.73693 116.999C9.36835 116.999 9.08087 117.243 8.87447 117.729C8.68281 118.201 8.58698 119.012 8.58698 120.162C8.58698 120.928 8.64595 121.577 8.7639 122.108C8.89658 122.624 9.11773 123.022 9.42733 123.302C9.73693 123.567 10.1792 123.7 10.7542 123.7C10.9311 123.7 11.0933 123.693 11.2407 123.678C11.3881 123.649 11.5134 123.619 11.6166 123.59L11.9484 125.934C11.7125 126.037 11.4545 126.111 11.1744 126.155C10.8942 126.199 10.5846 126.221 10.2456 126.221ZM13.2453 112.643C12.5524 112.643 12.0069 112.54 11.6089 112.333C11.2108 112.127 10.9307 111.869 10.7685 111.559C10.5916 111.235 10.5032 110.896 10.5032 110.542C10.5032 110.291 10.54 110.026 10.6137 109.746C10.6874 109.451 10.798 109.178 10.9454 108.928L13.3559 109.237C13.3264 109.341 13.3043 109.451 13.2896 109.569C13.2601 109.672 13.2453 109.768 13.2453 109.857C13.2453 110.063 13.3117 110.225 13.4444 110.343C13.5623 110.446 13.7687 110.498 14.0636 110.498H18.8181V112.643H13.2453ZM23.3217 126.287C22.5698 126.287 21.8621 126.199 21.1987 126.022C20.5353 125.86 19.9161 125.631 19.3411 125.337L20.2257 122.948C20.55 123.125 20.9407 123.287 21.3977 123.435C21.8547 123.567 22.3044 123.634 22.7467 123.634C23.5723 123.634 24.2283 123.354 24.7149 122.793C25.2014 122.218 25.4446 121.363 25.4446 120.228C25.4446 119.167 25.2014 118.356 24.7149 117.796C24.2283 117.221 23.4691 116.933 22.4371 116.933C21.9506 116.933 21.4493 116.999 20.9333 117.132C20.4173 117.265 19.9898 117.434 19.6507 117.641V114.921C20.1077 114.714 20.6237 114.56 21.1987 114.456C21.7737 114.338 22.3855 114.279 23.0342 114.279C24.3905 114.279 25.4962 114.515 26.3513 114.987C27.2064 115.459 27.833 116.137 28.231 117.022C28.6291 117.906 28.8281 118.975 28.8281 120.228C28.8281 122.233 28.349 123.744 27.3907 124.762C26.4324 125.779 25.0761 126.287 23.3217 126.287ZM36.6051 126.287C34.9244 126.287 33.6492 125.934 32.7793 125.226C31.9242 124.518 31.4967 123.494 31.4967 122.152V121.4C31.4967 120.855 31.563 120.398 31.6957 120.029C31.8432 119.661 32.0348 119.321 32.2707 119.012C32.5066 118.702 32.6982 118.43 32.8457 118.194C33.0078 117.943 33.0889 117.685 33.0889 117.42C33.0889 117.184 33.0226 117.014 32.8899 116.911C32.772 116.808 32.6098 116.756 32.4034 116.756C32.256 116.756 32.1012 116.778 31.939 116.823C31.7916 116.867 31.622 116.926 31.4304 116.999L30.8996 114.943C31.3124 114.736 31.7547 114.596 32.2265 114.523C32.713 114.434 33.1405 114.39 33.5091 114.39C34.1578 114.39 34.6738 114.493 35.0571 114.7C35.4552 114.891 35.7426 115.171 35.9196 115.54C36.0965 115.909 36.1849 116.351 36.1849 116.867C36.1849 117.28 36.1186 117.656 35.9859 117.995C35.8532 118.319 35.6837 118.651 35.4773 118.99C35.2856 119.314 35.1161 119.616 34.9686 119.896C34.836 120.162 34.7696 120.553 34.7696 121.069V121.82C34.7696 122.248 34.836 122.602 34.9686 122.882C35.1161 123.162 35.3298 123.368 35.61 123.501C35.8901 123.634 36.2218 123.7 36.6051 123.7C37.239 123.7 37.6887 123.538 37.9541 123.214C38.2342 122.889 38.3742 122.454 38.3742 121.909V120.029C38.3742 119.616 38.271 119.292 38.0646 119.056C37.873 118.82 37.5413 118.702 37.0695 118.702H36.9589V116.977H37.0916C37.5486 116.977 37.8877 116.867 38.1089 116.646C38.33 116.41 38.4701 116.108 38.529 115.739C38.6028 115.37 38.6396 114.98 38.6396 114.567H41.9346C41.9346 115.437 41.8167 116.152 41.5808 116.712C41.3449 117.257 40.9321 117.633 40.3424 117.84V117.928C40.6962 118.017 40.969 118.164 41.1606 118.371C41.3523 118.562 41.485 118.798 41.5587 119.078C41.6324 119.358 41.6693 119.668 41.6693 120.007V121.997C41.6693 123.427 41.2417 124.504 40.3866 125.226C39.5316 125.934 38.271 126.287 36.6051 126.287ZM38.7728 112.643V107.623H41.8246V112.643H38.7728ZM47.9195 126.287C47.1676 126.287 46.4599 126.199 45.7965 126.022C45.1331 125.86 44.5139 125.631 43.9389 125.337L44.8235 122.948C45.1478 123.125 45.5385 123.287 45.9955 123.435C46.4526 123.567 46.9022 123.634 47.3445 123.634C48.1701 123.634 48.8262 123.354 49.3127 122.793C49.7992 122.218 50.0425 121.363 50.0425 120.228C50.0425 119.167 49.7992 118.356 49.3127 117.796C48.8262 117.221 48.0669 116.933 47.0349 116.933C46.5484 116.933 46.0471 116.999 45.5311 117.132C45.0151 117.265 44.5876 117.434 44.2485 117.641V114.921C44.7055 114.714 45.2215 114.56 45.7965 114.456C46.3715 114.338 46.9833 114.279 47.632 114.279C48.9883 114.279 50.0941 114.515 50.9491 114.987C51.8042 115.459 52.4308 116.137 52.8289 117.022C53.2269 117.906 53.4259 118.975 53.4259 120.228C53.4259 122.233 52.9468 123.744 51.9885 124.762C51.0302 125.779 49.6739 126.287 47.9195 126.287ZM61.1808 126.287C59.8539 126.287 58.7925 126.14 57.9963 125.845C57.2002 125.536 56.6179 125.108 56.2493 124.563C55.8955 124.017 55.7186 123.391 55.7186 122.683C55.7186 122.078 55.8144 121.592 56.0061 121.223C56.2125 120.84 56.4705 120.553 56.7801 120.361C57.1044 120.154 57.4287 120.014 57.7531 119.941V119.808C57.414 119.69 57.0897 119.535 56.7801 119.344C56.4705 119.137 56.2125 118.872 56.0061 118.547C55.8144 118.208 55.7186 117.796 55.7186 117.309C55.7186 116.778 55.8439 116.292 56.0945 115.85C56.3599 115.407 56.7801 115.053 57.355 114.788C57.93 114.508 58.6893 114.368 59.6328 114.368C60.0898 114.368 60.5321 114.405 60.9597 114.478C61.3872 114.537 61.7189 114.626 61.9548 114.744L61.4462 116.955C61.3282 116.926 61.1661 116.896 60.9597 116.867C60.768 116.823 60.569 116.8 60.3626 116.8C59.9055 116.8 59.5665 116.896 59.3453 117.088C59.1242 117.28 59.0136 117.523 59.0136 117.818C59.0136 118.142 59.1094 118.393 59.3011 118.57C59.4927 118.732 59.736 118.85 60.0309 118.923C60.3405 118.982 60.6574 119.012 60.9818 119.012H61.4462V121.046H60.9818C60.3478 121.046 59.8687 121.142 59.5443 121.334C59.2347 121.526 59.0799 121.843 59.0799 122.285C59.0799 122.521 59.1389 122.757 59.2569 122.992C59.3895 123.214 59.6107 123.405 59.9203 123.567C60.2299 123.715 60.6722 123.789 61.2471 123.789C61.7926 123.789 62.2202 123.715 62.5298 123.567C62.8394 123.42 63.0605 123.228 63.1932 122.992C63.3259 122.742 63.3922 122.469 63.3922 122.174V114.567H66.7094V122.086C66.7094 123.516 66.2597 124.577 65.3604 125.27C64.4758 125.948 63.0826 126.287 61.1808 126.287ZM73.0356 126.287C72.2837 126.287 71.5761 126.199 70.9126 126.022C70.2492 125.86 69.63 125.631 69.055 125.337L69.9396 122.948C70.264 123.125 70.6546 123.287 71.1117 123.435C71.5687 123.567 72.0184 123.634 72.4606 123.634C73.2862 123.634 73.9423 123.354 74.4288 122.793C74.9153 122.218 75.1586 121.363 75.1586 120.228C75.1586 119.167 74.9153 118.356 74.4288 117.796C73.9423 117.221 73.183 116.933 72.151 116.933C71.6645 116.933 71.1633 116.999 70.6473 117.132C70.1313 117.265 69.7037 117.434 69.3646 117.641V114.921C69.8217 114.714 70.3377 114.56 70.9126 114.456C71.4876 114.338 72.0994 114.279 72.7481 114.279C74.1045 114.279 75.2102 114.515 76.0653 114.987C76.9204 115.459 77.5469 116.137 77.945 117.022C78.343 117.906 78.5421 118.975 78.5421 120.228C78.5421 122.233 78.0629 123.744 77.1046 124.762C76.1464 125.779 74.79 126.287 73.0356 126.287ZM84.373 126V118.525C84.373 117.965 84.2256 117.56 83.9307 117.309C83.6506 117.044 83.1862 116.911 82.5375 116.911C82.051 116.911 81.6013 116.977 81.1885 117.11C80.7905 117.228 80.4145 117.368 80.0607 117.53V114.921C80.385 114.773 80.8421 114.633 81.4318 114.501C82.0215 114.353 82.7144 114.279 83.5105 114.279C84.3214 114.279 85.0364 114.39 85.6556 114.611C86.2896 114.832 86.7834 115.208 87.1373 115.739C87.5058 116.27 87.6901 116.999 87.6901 117.928V126H84.373ZM92.8554 126L89.3392 114.567H92.6785L95.3543 123.324H95.487C95.7229 123.324 95.944 123.265 96.1504 123.147C96.3568 123.029 96.5337 122.875 96.6811 122.683C96.976 122.3 97.1971 121.857 97.3446 121.356C97.492 120.84 97.5657 120.324 97.5657 119.808C97.5657 118.923 97.3741 118.245 96.9907 117.773C96.6222 117.287 96.1062 117.044 95.4427 117.044C95.3101 117.044 95.1847 117.051 95.0668 117.066C94.9636 117.081 94.8678 117.103 94.7793 117.132L94.1601 114.611C94.4992 114.508 94.8162 114.449 95.111 114.434C95.4206 114.405 95.6713 114.39 95.8629 114.39C96.6443 114.39 97.3225 114.493 97.8974 114.7C98.4724 114.891 98.9663 115.179 99.3791 115.562C99.8951 116.034 100.278 116.624 100.529 117.331C100.794 118.039 100.927 118.842 100.927 119.742C100.927 120.862 100.735 121.85 100.352 122.705C99.9835 123.545 99.5339 124.209 99.0031 124.695C98.5609 125.093 98.0006 125.41 97.3225 125.646C96.659 125.882 95.745 126 94.5803 126H92.8554ZM106.816 126.221C106.152 126.221 105.592 126.118 105.135 125.912C104.678 125.705 104.332 125.396 104.096 124.983C103.86 124.57 103.742 124.061 103.742 123.457V114.567H107.059V123.059C107.059 123.309 107.118 123.501 107.236 123.634C107.369 123.752 107.568 123.811 107.833 123.811C107.951 123.811 108.076 123.803 108.209 123.789C108.342 123.759 108.467 123.722 108.585 123.678L108.895 125.779C108.615 125.912 108.298 126.015 107.944 126.088C107.59 126.177 107.214 126.221 106.816 126.221ZM113.472 126.221C112.809 126.221 112.249 126.118 111.792 125.912C111.335 125.705 110.988 125.396 110.752 124.983C110.516 124.57 110.398 124.061 110.398 123.457V114.567H113.716V123.059C113.716 123.309 113.775 123.501 113.892 123.634C114.025 123.752 114.224 123.811 114.49 123.811C114.607 123.811 114.733 123.803 114.865 123.789C114.998 123.759 115.123 123.722 115.241 123.678L115.551 125.779C115.271 125.912 114.954 126.015 114.6 126.088C114.246 126.177 113.87 126.221 113.472 126.221ZM117.709 126V117.199C117.709 116.461 117.835 115.894 118.085 115.496C118.351 115.083 118.712 114.795 119.169 114.633C119.626 114.456 120.149 114.368 120.739 114.368C121.152 114.368 121.52 114.412 121.845 114.501C122.169 114.574 122.434 114.663 122.641 114.766L122.199 116.889C122.081 116.859 121.963 116.845 121.845 116.845C121.727 116.83 121.631 116.823 121.557 116.823C121.277 116.823 121.078 116.889 120.96 117.022C120.857 117.154 120.805 117.346 120.805 117.597V119.366C120.805 119.69 120.791 120.095 120.761 120.582C120.732 121.069 120.68 121.68 120.606 122.417H120.717C121.012 121.754 121.27 121.231 121.491 120.847C121.727 120.449 121.933 120.103 122.11 119.808L122.928 118.459H124.167L124.985 119.808C125.191 120.132 125.368 120.427 125.516 120.693C125.663 120.943 125.803 121.201 125.936 121.467C126.069 121.732 126.216 122.049 126.378 122.417H126.489C126.415 121.68 126.363 121.069 126.334 120.582C126.305 120.095 126.29 119.69 126.29 119.366V114.567H129.386V126H126.223L123.592 121.599H123.503L120.872 126H117.709ZM136.808 126.221C135.909 126.221 135.15 126.052 134.53 125.713C133.926 125.373 133.462 124.88 133.137 124.231C132.828 123.567 132.673 122.757 132.673 121.798V114.567H135.99V121.179C135.99 121.946 136.152 122.499 136.476 122.838C136.801 123.162 137.273 123.324 137.892 123.324C138.673 123.324 139.278 123.051 139.705 122.506C140.133 121.96 140.346 121.083 140.346 119.874V114.567H143.664V126H141.143L140.789 124.231H140.59C140.339 124.776 139.904 125.248 139.285 125.646C138.681 126.029 137.855 126.221 136.808 126.221ZM151.591 126.221C150.279 126.221 149.255 125.971 148.517 125.469C147.795 124.953 147.286 124.238 146.991 123.324C146.711 122.41 146.571 121.349 146.571 120.14C146.571 118.798 146.711 117.707 146.991 116.867C147.272 116.012 147.692 115.385 148.252 114.987C148.827 114.574 149.527 114.368 150.353 114.368C150.869 114.368 151.319 114.464 151.702 114.655C152.1 114.847 152.417 115.201 152.653 115.717H152.741C152.948 115.186 153.287 114.832 153.758 114.655C154.23 114.464 154.739 114.368 155.284 114.368C156.302 114.368 157.061 114.626 157.562 115.142C158.078 115.658 158.336 116.41 158.336 117.398V126H155.019V118.061C155.019 117.648 154.945 117.368 154.798 117.221C154.65 117.073 154.451 116.999 154.201 116.999C153.921 116.999 153.707 117.073 153.559 117.221C153.427 117.368 153.338 117.619 153.294 117.973H151.989C151.93 117.589 151.82 117.331 151.658 117.199C151.495 117.066 151.304 116.999 151.083 116.999C150.714 116.999 150.427 117.243 150.22 117.729C150.029 118.201 149.933 119.012 149.933 120.162C149.933 120.928 149.992 121.577 150.11 122.108C150.242 122.624 150.463 123.022 150.773 123.302C151.083 123.567 151.525 123.7 152.1 123.7C152.277 123.7 152.439 123.693 152.586 123.678C152.734 123.649 152.859 123.619 152.962 123.59L153.294 125.934C153.058 126.037 152.8 126.111 152.52 126.155C152.24 126.199 151.93 126.221 151.591 126.221ZM164.645 126V118.525C164.645 117.965 164.498 117.56 164.203 117.309C163.923 117.044 163.458 116.911 162.81 116.911C162.323 116.911 161.874 116.977 161.461 117.11C161.063 117.228 160.687 117.368 160.333 117.53V114.921C160.657 114.773 161.114 114.633 161.704 114.501C162.294 114.353 162.987 114.279 163.783 114.279C164.594 114.279 165.309 114.39 165.928 114.611C166.562 114.832 167.056 115.208 167.41 115.739C167.778 116.27 167.962 116.999 167.962 117.928V126H164.645ZM175.162 126.287C174.292 126.287 173.423 126.192 172.553 126C171.683 125.823 170.916 125.558 170.253 125.204L171.182 122.572C171.476 122.734 171.823 122.904 172.221 123.081C172.634 123.243 173.076 123.383 173.548 123.501C174.034 123.619 174.528 123.678 175.029 123.678C175.604 123.678 176.039 123.604 176.334 123.457C176.644 123.295 176.799 123.074 176.799 122.793C176.799 122.572 176.695 122.388 176.489 122.241C176.297 122.078 176.01 121.924 175.627 121.776C175.258 121.629 174.808 121.474 174.278 121.312C173.511 121.061 172.848 120.788 172.287 120.494C171.727 120.184 171.3 119.808 171.005 119.366C170.71 118.909 170.562 118.341 170.562 117.663C170.562 116.882 170.761 116.24 171.159 115.739C171.572 115.238 172.147 114.869 172.884 114.633C173.636 114.397 174.506 114.279 175.494 114.279C176.319 114.279 177.057 114.346 177.705 114.478C178.369 114.611 178.877 114.773 179.231 114.965V117.552C178.981 117.434 178.656 117.324 178.258 117.221C177.86 117.103 177.433 117.007 176.976 116.933C176.519 116.859 176.076 116.823 175.649 116.823C175.059 116.823 174.609 116.889 174.3 117.022C173.99 117.154 173.835 117.353 173.835 117.619C173.835 117.825 173.939 118.002 174.145 118.149C174.366 118.297 174.676 118.444 175.074 118.592C175.487 118.739 175.98 118.909 176.555 119.1C177.322 119.351 177.963 119.624 178.479 119.919C178.995 120.213 179.386 120.575 179.651 121.002C179.931 121.43 180.072 121.975 180.072 122.639C180.072 123.258 179.924 123.848 179.629 124.408C179.334 124.968 178.826 125.425 178.103 125.779C177.396 126.118 176.415 126.287 175.162 126.287ZM185.593 126V118.525C185.593 117.965 185.446 117.56 185.151 117.309C184.871 117.044 184.407 116.911 183.758 116.911C183.271 116.911 182.822 116.977 182.409 117.11C182.011 117.228 181.635 117.368 181.281 117.53V114.921C181.605 114.773 182.062 114.633 182.652 114.501C183.242 114.353 183.935 114.279 184.731 114.279C185.542 114.279 186.257 114.39 186.876 114.611C187.51 114.832 188.004 115.208 188.358 115.739C188.726 116.27 188.911 116.999 188.911 117.928V126H185.593ZM194.076 126L190.56 114.567H193.899L196.575 123.324H196.707C196.943 123.324 197.164 123.265 197.371 123.147C197.577 123.029 197.754 122.875 197.902 122.683C198.196 122.3 198.418 121.857 198.565 121.356C198.712 120.84 198.786 120.324 198.786 119.808C198.786 118.923 198.594 118.245 198.211 117.773C197.843 117.287 197.327 117.044 196.663 117.044C196.53 117.044 196.405 117.051 196.287 117.066C196.184 117.081 196.088 117.103 196 117.132L195.38 114.611C195.72 114.508 196.037 114.449 196.331 114.434C196.641 114.405 196.892 114.39 197.083 114.39C197.865 114.39 198.543 114.493 199.118 114.7C199.693 114.891 200.187 115.179 200.599 115.562C201.115 116.034 201.499 116.624 201.749 117.331C202.015 118.039 202.147 118.842 202.147 119.742C202.147 120.862 201.956 121.85 201.572 122.705C201.204 123.545 200.754 124.209 200.224 124.695C199.781 125.093 199.221 125.41 198.543 125.646C197.879 125.882 196.965 126 195.801 126H194.076ZM208.036 126.221C207.373 126.221 206.813 126.118 206.356 125.912C205.899 125.705 205.552 125.396 205.316 124.983C205.08 124.57 204.962 124.061 204.962 123.457V114.567H208.279V123.059C208.279 123.309 208.338 123.501 208.456 123.634C208.589 123.752 208.788 123.811 209.053 123.811C209.171 123.811 209.297 123.803 209.429 123.789C209.562 123.759 209.687 123.722 209.805 123.678L210.115 125.779C209.835 125.912 209.518 126.015 209.164 126.088C208.81 126.177 208.434 126.221 208.036 126.221ZM216.195 126.287C215.325 126.287 214.455 126.192 213.585 126C212.715 125.823 211.949 125.558 211.285 125.204L212.214 122.572C212.509 122.734 212.855 122.904 213.253 123.081C213.666 123.243 214.108 123.383 214.58 123.501C215.067 123.619 215.561 123.678 216.062 123.678C216.637 123.678 217.072 123.604 217.367 123.457C217.676 123.295 217.831 123.074 217.831 122.793C217.831 122.572 217.728 122.388 217.521 122.241C217.33 122.078 217.042 121.924 216.659 121.776C216.29 121.629 215.841 121.474 215.31 121.312C214.543 121.061 213.88 120.788 213.32 120.494C212.759 120.184 212.332 119.808 212.037 119.366C211.742 118.909 211.595 118.341 211.595 117.663C211.595 116.882 211.794 116.24 212.192 115.739C212.605 115.238 213.18 114.869 213.917 114.633C214.669 114.397 215.538 114.279 216.526 114.279C217.352 114.279 218.089 114.346 218.738 114.478C219.401 114.611 219.91 114.773 220.264 114.965V117.552C220.013 117.434 219.689 117.324 219.291 117.221C218.892 117.103 218.465 117.007 218.008 116.933C217.551 116.859 217.109 116.823 216.681 116.823C216.091 116.823 215.642 116.889 215.332 117.022C215.022 117.154 214.868 117.353 214.868 117.619C214.868 117.825 214.971 118.002 215.177 118.149C215.398 118.297 215.708 118.444 216.106 118.592C216.519 118.739 217.013 118.909 217.588 119.1C218.354 119.351 218.996 119.624 219.512 119.919C220.028 120.213 220.418 120.575 220.684 121.002C220.964 121.43 221.104 121.975 221.104 122.639C221.104 123.258 220.956 123.848 220.662 124.408C220.367 124.968 219.858 125.425 219.136 125.779C218.428 126.118 217.448 126.287 216.195 126.287ZM210.363 111.643V110.25L212.596 109.321H220.491V111.643H210.363ZM217.661 110.294V107.795H220.491V110.294H217.661ZM228.55 126.287C227.223 126.287 226.161 126.14 225.365 125.845C224.569 125.536 223.987 125.108 223.618 124.563C223.264 124.017 223.087 123.391 223.087 122.683C223.087 122.078 223.183 121.592 223.375 121.223C223.581 120.84 223.839 120.553 224.149 120.361C224.473 120.154 224.798 120.014 225.122 119.941V119.808C224.783 119.69 224.459 119.535 224.149 119.344C223.839 119.137 223.581 118.872 223.375 118.547C223.183 118.208 223.087 117.796 223.087 117.309C223.087 116.778 223.213 116.292 223.463 115.85C223.729 115.407 224.149 115.053 224.724 114.788C225.299 114.508 226.058 114.368 227.002 114.368C227.459 114.368 227.901 114.405 228.329 114.478C228.756 114.537 229.088 114.626 229.324 114.744L228.815 116.955C228.697 116.926 228.535 116.896 228.329 116.867C228.137 116.823 227.938 116.8 227.731 116.8C227.274 116.8 226.935 116.896 226.714 117.088C226.493 117.28 226.382 117.523 226.382 117.818C226.382 118.142 226.478 118.393 226.67 118.57C226.862 118.732 227.105 118.85 227.4 118.923C227.709 118.982 228.026 119.012 228.351 119.012H228.815V121.046H228.351C227.717 121.046 227.238 121.142 226.913 121.334C226.604 121.526 226.449 121.843 226.449 122.285C226.449 122.521 226.508 122.757 226.626 122.992C226.758 123.214 226.98 123.405 227.289 123.567C227.599 123.715 228.041 123.789 228.616 123.789C229.161 123.789 229.589 123.715 229.899 123.567C230.208 123.42 230.429 123.228 230.562 122.992C230.695 122.742 230.761 122.469 230.761 122.174V114.567H234.078V122.086C234.078 123.516 233.629 124.577 232.729 125.27C231.845 125.948 230.451 126.287 228.55 126.287ZM241.311 126.221C240.412 126.221 239.653 126.052 239.033 125.713C238.429 125.373 237.965 124.88 237.64 124.231C237.331 123.567 237.176 122.757 237.176 121.798V114.567H240.493V121.179C240.493 121.946 240.655 122.499 240.979 122.838C241.304 123.162 241.776 123.324 242.395 123.324C243.176 123.324 243.781 123.051 244.208 122.506C244.636 121.96 244.849 121.083 244.849 119.874V114.567H248.167V126H245.646L245.292 124.231H245.093C244.842 124.776 244.407 125.248 243.788 125.646C243.184 126.029 242.358 126.221 241.311 126.221Z" fill="#045C11"/>
<path d="M17.1457 64.3844C21.9925 64.3844 25.5223 65.438 27.735 67.5454C29.9828 69.6176 31.1067 72.48 31.1067 76.1327C31.1067 77.7834 30.8608 79.3639 30.3691 80.8741C29.8774 82.3493 29.052 83.6839 27.893 84.878C26.7691 86.0371 25.2764 86.9502 23.415 87.6176C21.5535 88.2849 19.253 88.6185 16.5135 88.6185H13.0891V102H5.13399V64.3844H17.1457ZM16.7242 70.9171H13.0891V82.0859H15.7233C17.2335 82.0859 18.533 81.8927 19.6218 81.5063C20.7106 81.12 21.5535 80.5054 22.1506 79.6624C22.7476 78.8195 23.0462 77.7307 23.0462 76.3961C23.0462 74.5346 22.5369 73.1649 21.5184 72.2868C20.4998 71.3737 18.9018 70.9171 16.7242 70.9171ZM38.2152 102V64.3844H46.1703V95.4146H61.4483V102H38.2152ZM91.0261 102L88.2866 93.0439H74.589L71.8495 102H63.2622L76.5383 64.2263H86.2846L99.6134 102H91.0261ZM83.6505 77.6078C83.4749 77.0107 83.2466 76.2556 82.9656 75.3424C82.6846 74.4293 82.4037 73.4985 82.1227 72.5502C81.8417 71.6019 81.6134 70.7766 81.4378 70.0741C81.2622 70.7766 81.0163 71.6546 80.7002 72.7083C80.4193 73.7268 80.1383 74.7102 79.8573 75.6585C79.6115 76.5717 79.4183 77.2215 79.2778 77.6078L76.591 86.3532H86.39L83.6505 77.6078ZM137.726 102H127.611L111.226 73.5512H111.016C111.051 74.4293 111.086 75.3249 111.121 76.238C111.156 77.1161 111.191 78.0117 111.226 78.9249C111.297 79.8029 111.349 80.6985 111.384 81.6117C111.419 82.4898 111.455 83.3854 111.49 84.2985V102H104.378V64.3844H114.44L130.772 92.5698H130.93C130.895 91.6917 130.859 90.8312 130.824 89.9883C130.789 89.1102 130.754 88.2498 130.719 87.4068C130.719 86.5288 130.701 85.6683 130.666 84.8254C130.631 83.9473 130.596 83.0693 130.561 82.1912V64.3844H137.726V102ZM180.582 102H170.467L154.083 73.5512H153.872C153.907 74.4293 153.942 75.3249 153.977 76.238C154.012 77.1161 154.047 78.0117 154.083 78.9249C154.153 79.8029 154.206 80.6985 154.241 81.6117C154.276 82.4898 154.311 83.3854 154.346 84.2985V102H147.234V64.3844H157.296L173.628 92.5698H173.786C173.751 91.6917 173.716 90.8312 173.681 89.9883C173.646 89.1102 173.61 88.2498 173.575 87.4068C173.575 86.5288 173.558 85.6683 173.523 84.8254C173.487 83.9473 173.452 83.0693 173.417 82.1912V64.3844H180.582V102ZM211.743 102H190.09V64.3844H211.743V70.9171H198.045V79.1883H210.795V85.721H198.045V95.4146H211.743V102ZM230.528 64.3844C233.935 64.3844 236.745 64.8058 238.957 65.6488C241.17 66.4566 242.821 67.7034 243.91 69.3893C244.998 71.04 245.543 73.1298 245.543 75.6585C245.543 77.3795 245.209 78.8898 244.542 80.1893C243.909 81.4537 243.049 82.5424 241.96 83.4556C240.907 84.3337 239.765 85.0537 238.536 85.6156L249.599 102H240.749L231.792 87.5649H227.525V102H219.57V64.3844H230.528ZM229.949 70.9171H227.525V81.0849H230.107C231.863 81.0849 233.285 80.8917 234.374 80.5054C235.463 80.119 236.253 79.5395 236.745 78.7668C237.236 77.959 237.482 76.9932 237.482 75.8693C237.482 74.6751 237.201 73.7268 236.639 73.0244C236.112 72.2868 235.287 71.76 234.163 71.4439C233.074 71.0927 231.669 70.9171 229.949 70.9171Z" fill="#045C11"/>
<path d="M43.985 57H32.4142L19.8344 36.7511L15.529 39.8456V57H5.37088V8.96775H15.529V30.9657C16.2017 30.0239 16.8744 29.0821 17.5471 28.1403C18.2198 27.1985 18.8926 26.2567 19.5653 25.3149L32.5488 8.96775H43.8505L27.0998 30.2257L43.985 57ZM89.1288 40.0474C89.1288 43.3662 88.3888 46.371 86.9088 49.0619C85.4737 51.7079 83.2761 53.8158 80.3161 55.3855C77.401 56.9103 73.7011 57.6727 69.2163 57.6727C62.8478 57.6727 58.0042 56.0582 54.6855 52.8291C51.3667 49.5552 49.7074 45.2498 49.7074 39.9129V8.96775H59.8654V38.3656C59.8654 42.3123 60.6727 45.0928 62.2872 46.7074C63.9018 48.3219 66.3011 49.1292 69.4853 49.1292C71.7277 49.1292 73.5441 48.748 74.9344 47.9855C76.3247 47.2231 77.3338 46.0347 77.9616 44.4201C78.6343 42.8056 78.9707 40.765 78.9707 38.2984V8.96775H89.1288V40.0474Z" fill="#045C11"/>
</svg>
